<?xml version="1.0" encoding="UTF-8" standalone="no"?>
<svg
   xmlns:dc="http://purl.org/dc/elements/1.1/"
   xmlns:cc="http://creativecommons.org/ns#"
   xmlns:rdf="http://www.w3.org/1999/02/22-rdf-syntax-ns#"
   xmlns:svg="http://www.w3.org/2000/svg"
   xmlns="http://www.w3.org/2000/svg"
   xmlns:sodipodi="http://sodipodi.sourceforge.net/DTD/sodipodi-0.dtd"
   xmlns:inkscape="http://www.inkscape.org/namespaces/inkscape"
   inkscape:version="1.0 (4035a4fb49, 2020-05-01)"
   sodipodi:docname="icon-angle-solid-top-white.svg"
   viewBox="0 0 125 80"
   height="30"
   width="62.5"
   id="svg833"
   version="1.1">
  <metadata
     id="metadata839">
    <rdf:RDF>
      <cc:Work
         rdf:about="">
        <dc:format>image/svg+xml</dc:format>
        <dc:type
           rdf:resource="http://purl.org/dc/dcmitype/StillImage" />
        <dc:title></dc:title>
      </cc:Work>
    </rdf:RDF>
  </metadata>
  <defs
     id="defs837" />
  <sodipodi:namedview
     inkscape:current-layer="g841"
     inkscape:window-maximized="1"
     inkscape:window-y="-8"
     inkscape:window-x="-8"
     inkscape:cy="43.289888"
     inkscape:cx="59.554215"
     inkscape:zoom="4.9087225"
     showgrid="false"
     id="namedview835"
     inkscape:window-height="1017"
     inkscape:window-width="1920"
     inkscape:pageshadow="2"
     inkscape:pageopacity="0"
     guidetolerance="10"
     gridtolerance="10"
     objecttolerance="10"
     borderopacity="1"
     bordercolor="#666666"
     pagecolor="#ffffff" />
  <g
     id="g841"
     inkscape:label="Image"
     inkscape:groupmode="layer">
    <path
       sodipodi:nodetypes="ccccccccccccccccccc"
       id="path845"
       d="M 4.3793954,52.068066 53.069208,4.6323993 c 3.791004,-4.06072758 5.867491,-3.85515353 8.575072,-4.13386618 4.796318,0.38628955 6.1981,1.94236678 8.359157,3.56322468 L 122.15849,54.830794 c 1.44353,2.055407 1.92537,3.230307 2.33957,4.769375 -0.14894,1.652149 -0.30852,3.137023 -0.93933,4.741204 l -13.44464,13.387856 c -1.68024,1.22403 -3.1677,1.785757 -4.4791,1.742657 -2.04338,0.157011 -4.08678,-0.236991 -6.130161,-1.59075 L 66.889649,46.079751 c -1.37541,-1.310726 -2.583171,-2.575824 -5.576571,-2.472294 -2.718419,0.09775 -3.88382,1.287903 -5.377682,2.715513 L 24.455838,76.952358 c -1.074898,1.20667 -2.919001,1.991723 -5.217787,2.158244 -2.040269,0.08065 -3.77012,-1.14708 -4.95317,-2.100785 L 2.3906691,65.233172 C 1.1854428,63.375605 -0.04560208,60.707318 0.75340578,58.849751 0.85873977,57.378093 2.0466216,54.932026 4.3793954,52.068066 Z"
       style="fill:#ffffff;stroke:#ffffff;stroke-width:0.992695px;stroke-linecap:butt;stroke-linejoin:miter;stroke-opacity:1" />
  </g>
</svg>
