<?xml version="1.0" encoding="UTF-8" standalone="no"?>
<svg
   xmlns:dc="http://purl.org/dc/elements/1.1/"
   xmlns:cc="http://creativecommons.org/ns#"
   xmlns:rdf="http://www.w3.org/1999/02/22-rdf-syntax-ns#"
   xmlns:svg="http://www.w3.org/2000/svg"
   xmlns="http://www.w3.org/2000/svg"
   xmlns:sodipodi="http://sodipodi.sourceforge.net/DTD/sodipodi-0.dtd"
   xmlns:inkscape="http://www.inkscape.org/namespaces/inkscape"
   width="70"
   height="70"
   id="svg3070"
   version="1.1"
   inkscape:version="1.0 (4035a4fb49, 2020-05-01)"
   sodipodi:docname="LinkedIn_Logo.svg">
  <defs
     id="defs3072" />
  <sodipodi:namedview
     id="base"
     pagecolor="#ffffff"
     bordercolor="#666666"
     borderopacity="1.0"
     inkscape:pageopacity="0.0"
     inkscape:pageshadow="2"
     inkscape:zoom="6.46"
     inkscape:cx="27.218044"
     inkscape:cy="33.370856"
     inkscape:document-units="px"
     inkscape:current-layer="g3019"
     showgrid="false"
     fit-margin-top="0"
     fit-margin-left="0"
     fit-margin-right="0"
     fit-margin-bottom="0"
     inkscape:window-width="1600"
     inkscape:window-height="837"
     inkscape:window-x="1912"
     inkscape:window-y="-8"
     inkscape:window-maximized="1"
     inkscape:document-rotation="0" />
  <metadata
     id="metadata3075">
    <rdf:RDF>
      <cc:Work
         rdf:about="">
        <dc:format>image/svg+xml</dc:format>
        <dc:type
           rdf:resource="http://purl.org/dc/dcmitype/StillImage" />
        <dc:title></dc:title>
      </cc:Work>
    </rdf:RDF>
  </metadata>
  <g
     inkscape:label="Layer 1"
     inkscape:groupmode="layer"
     id="layer1"
     transform="translate(-200.55198,-393.96227)">
    <g
       transform="matrix(1.018827,0,0,-1.018827,170.5996,498.03288)"
       id="g3019">
      <path
         d="m 29.852448,96.8372 c 0,2.681572 2.243112,4.85672 5.010247,4.85672 h 57.778846 c 2.767038,0 5.010247,-2.175148 5.010247,-4.85672 V 38.751298 c 0,-2.682476 -2.243209,-4.856724 -5.010247,-4.856724 H 34.862695 c -2.767135,0 -5.010247,2.174248 -5.010247,4.856724 z"
         style="fill:none;fill-opacity:1;fill-rule:nonzero;stroke:#ffffff;stroke-width:0.907122;stroke-miterlimit:4;stroke-dasharray:none;stroke-opacity:1"
         id="path14"
         inkscape:connector-curvature="0" />
      <path
         d="M 50.404528,44.938841 V 75.554044 H 40.164041 V 44.938841 Z m -5.120286,34.795194 c 3.571054,0 5.793746,2.350903 5.793746,5.288853 -0.06658,3.004086 -2.222692,5.289762 -5.726009,5.289762 -3.502959,0 -5.793291,-2.285676 -5.793291,-5.289762 0,-2.93795 2.222224,-5.288853 5.658814,-5.288853 h 0.06658 z"
         style="fill:#ffffff;fill-opacity:1;fill-rule:evenodd;stroke:none;stroke-width:0.908805"
         id="path28"
         inkscape:connector-curvature="0" />
      <path
         d="M 56.070911,44.938841 H 66.3113 v 17.096827 c 0,0.914994 0.06658,1.829084 0.336967,2.483169 0.740284,1.828179 2.425251,3.721587 5.254207,3.721587 3.705529,0 5.187841,-2.807497 5.187841,-6.923164 V 44.938841 H 87.32989 v 17.554323 c 0,9.403616 -5.052094,13.779288 -11.789525,13.779288 -5.524434,0 -7.949697,-3.068406 -9.297173,-5.1584 h 0.06838 v 4.439992 H 56.071183 c 0.134428,-2.872725 0,-30.615203 0,-30.615203 z"
         style="fill:#ffffff;fill-opacity:1;fill-rule:evenodd;stroke:#ffffff;stroke-width:0.908805;stroke-opacity:1"
         id="path30"
         inkscape:connector-curvature="0" />
    </g>
  </g>
</svg>
